<?xml version="1.0" encoding="UTF-8"?>
<!DOCTYPE svg PUBLIC "-//W3C//DTD SVG 1.1//EN" "http://www.w3.org/Graphics/SVG/1.1/DTD/svg11.dtd">
<!-- Creator: CorelDRAW X7 -->
<svg xmlns="http://www.w3.org/2000/svg" xml:space="preserve" width="37.011mm" height="58.4646mm" version="1.1" style="shape-rendering:geometricPrecision; text-rendering:geometricPrecision; image-rendering:optimizeQuality; fill-rule:evenodd; clip-rule:evenodd"
viewBox="0 0 1423527 2248681"
 xmlns:xlink="http://www.w3.org/1999/xlink">
 <defs>
  <style type="text/css">
   <![CDATA[
    .str0 {stroke:black;stroke-width:19231.1}
    .fil0 {fill:none}
   ]]>
  </style>
 </defs>
 <g id="Capa_x0020_1">
  <metadata id="CorelCorpID_0Corel-Layer"/>
  <g id="_369540416">
   <path class="fil0 str0" d="M240208 577045c-67924,-68612 -136248,-137318 -206800,-206638 241309,-500348 1227858,-458743 1349952,-9062l-195892 219735c-125094,-121402 -292159,-195584 -475705,-195584 -181511,0 -346933,72528 -471555,191549z"/>
   <ellipse class="fil0 str0" cx="711763" cy="1124879" rx="295580" ry="311251"/>
   <path class="fil0 str0" d="M239654 1672189c-67747,68428 -135879,136956 -206246,206085 241309,500347 1227858,458743 1349952,9057l-195388 -219157c-125156,121690 -292417,196076 -476209,196076 -181776,0 -347418,-72732 -472109,-192061z"/>
   <path class="fil0 str0" d="M536560 1374503c-101771,99998 -198923,198726 -296906,297686 124691,119329 290333,192061 472109,192061 183792,0 351053,-74386 476209,-196076l-278970 -312922c-100418,87317 -249382,110102 -372442,19251z"/>
   <path class="fil0 str0" d="M1137337 1712951c-3485,2804 -6985,5570 -10520,8300 3535,-2730 7035,-5504 10520,-8300z"/>
   <path class="fil0 str0" d="M1149952 1702586c-3165,2661 -6350,5300 -9554,7900 3204,-2600 6389,-5239 9554,-7900z"/>
   <path class="fil0 str0" d="M1162976 1691339c-3143,2781 -6308,5535 -9501,8258 3193,-2723 6347,-5477 9501,-8258z"/>
   <path class="fil0 str0" d="M1175530 1679978c-3254,3019 -6535,6007 -9843,8957 3308,-2950 6589,-5950 9843,-8957z"/>
   <path class="fil0 str0" d="M1187776 1668366c-3308,3215 -6646,6392 -10016,9535 3370,-3143 6708,-6320 10016,-9535z"/>
   <path class="fil0 str0" d="M535956 1375099c-101548,99790 -198515,198327 -296302,297090 -141314,-135253 -230038,-330375 -230038,-547314 0,-217466 89147,-412981 231058,-548264l-466 434c97798,98771 194766,197331 296352,297129l492 -346c-73274,56643 -120867,147980 -120867,251055 0,102555 47108,193511 119771,250216z"/>
   <path class="fil0 str0" d="M1187468 581080c139195,135099 226443,328702 226443,543795 0,214781 -87040,408219 -225939,543299l-278282 -312141c59963,-56963 97652,-139414 97652,-231150 0,-92002 -37924,-174658 -98175,-231643l278301 -312160z"/>
   <path class="fil0 str0" d="M1165083 560268c3462,3093 6904,6196 10304,9358 -3411,-3154 -6842,-6277 -10304,-9358z"/>
   <path class="fil0 str0" d="M1152756 549533c3381,2877 6739,5793 10077,8731 -3338,-2946 -6696,-5842 -10077,-8731z"/>
   <path class="fil0 str0" d="M1140202 539095c3327,2704 6627,5434 9912,8200 -3277,-2766 -6585,-5496 -9912,-8200z"/>
   <path class="fil0 str0" d="M1127383 528925c3100,2404 6173,4831 9234,7285l-9234 -7285z"/>
   <path class="fil0 str0" d="M1113740 518621c3254,2404 6500,4831 9716,7297 -3216,-2466 -6462,-4893 -9716,-7297z"/>
   <path class="fil0 str0" d="M711763 385496c183546,0 350611,74182 475705,195584l-278466 312348c-100418,-87321 -249382,-110106 -372442,-19254 -101586,-99798 -198554,-198358 -296352,-297129 124622,-119021 290044,-191549 471555,-191549z"/>
  </g>
 </g>
</svg>
