<?xml version="1.0" encoding="UTF-8"?>
<!DOCTYPE svg PUBLIC "-//W3C//DTD SVG 1.1//EN" "http://www.w3.org/Graphics/SVG/1.1/DTD/svg11.dtd">
<!-- Creator: CorelDRAW X7 -->
<svg xmlns="http://www.w3.org/2000/svg" xml:space="preserve" width="37.011mm" height="58.4646mm" version="1.1" style="shape-rendering:geometricPrecision; text-rendering:geometricPrecision; image-rendering:optimizeQuality; fill-rule:evenodd; clip-rule:evenodd"
viewBox="0 0 14 22"
 xmlns:xlink="http://www.w3.org/1999/xlink">
 <defs>
  <style type="text/css">
   <![CDATA[
    .str0 {stroke:black;stroke-width:0.192311}
    .fil0 {fill:none}
   ]]>
  </style>
 </defs>
 <g id="Capa_x0020_1">
  <metadata id="CorelCorpID_0Corel-Layer"/>
  <g id="_369557720">
   <path class="fil0 str0" d="M2 6c0,-1 -1,-2 -2,-2 3,-5 13,-5 14,0l-2 2c-1,-1 -3,-2 -5,-2 -2,0 -3,1 -5,2z"/>
   <circle class="fil0 str0" cx="7" cy="11" r="3"/>
   <path class="fil0 str0" d="M2 17c0,0 -1,1 -2,2 3,5 13,4 14,0l-2 -2c-1,1 -3,2 -5,2 -2,0 -3,-1 -5,-2z"/>
   <path class="fil0 str0" d="M5 14c-1,1 -2,2 -3,3 2,1 3,2 5,2 2,0 4,-1 5,-2l-3 -3c-1,0 -2,1 -4,0z"/>
   <path class="fil0 str0" d="M11 17c0,0 0,0 0,0 0,0 0,0 0,0z"/>
   <path class="fil0 str0" d="M11 17c0,0 0,0 0,0 0,0 0,0 0,0z"/>
   <path class="fil0 str0" d="M12 17c0,0 0,0 0,0 0,0 0,0 0,0z"/>
   <path class="fil0 str0" d="M12 17c0,0 0,0 0,0 0,0 0,0 0,0z"/>
   <path class="fil0 str0" d="M12 17c0,0 0,0 0,0 0,0 0,0 0,0z"/>
   <path class="fil0 str0" d="M5 14c-1,1 -2,2 -3,3 -1,-2 -2,-4 -2,-6 0,-2 1,-4 2,-5l0 0c1,1 2,2 3,3l0 0c0,0 -1,1 -1,2 0,1 1,2 1,3z"/>
   <path class="fil0 str0" d="M12 6c1,1 2,3 2,5 0,2 -1,4 -2,6l-3 -3c1,-1 1,-2 1,-3 0,-1 0,-1 -1,-2l3 -3z"/>
   <path class="fil0 str0" d="M12 6c0,0 0,0 0,0 0,0 0,0 0,0z"/>
   <path class="fil0 str0" d="M12 5c0,1 0,1 0,1 0,0 0,0 0,-1z"/>
   <path class="fil0 str0" d="M11 5c0,0 0,0 1,0 -1,0 -1,0 -1,0z"/>
   <path class="fil0 str0" d="M11 5c0,0 0,0 0,0l0 0z"/>
   <path class="fil0 str0" d="M11 5c0,0 0,0 0,0 0,0 0,0 0,0z"/>
   <path class="fil0 str0" d="M7 4c2,0 4,1 5,2l-3 3c-1,-1 -2,-1 -4,0 -1,-1 -2,-2 -3,-3 2,-1 3,-2 5,-2z"/>
  </g>
 </g>
</svg>
