<?xml version="1.0" encoding="UTF-8"?>
<!DOCTYPE svg PUBLIC "-//W3C//DTD SVG 1.1//EN" "http://www.w3.org/Graphics/SVG/1.1/DTD/svg11.dtd">
<!-- Creator: CorelDRAW X7 -->
<svg xmlns="http://www.w3.org/2000/svg" xml:space="preserve" width="408.727mm" height="364.741mm" version="1.1" style="shape-rendering:geometricPrecision; text-rendering:geometricPrecision; image-rendering:optimizeQuality; fill-rule:evenodd; clip-rule:evenodd"
viewBox="0 0 25069 22371"
 xmlns:xlink="http://www.w3.org/1999/xlink">
 <defs>
  <style type="text/css">
   <![CDATA[
    .fil3 {fill:#0079C1}
    .fil1 {fill:#27367D}
    .fil2 {fill:#274787}
    .fil5 {fill:#3F427D}
    .fil4 {fill:#A1A3D2}
    .fil0 {fill:white}
   ]]>
  </style>
 </defs>
 <g id="Capa_x0020_1">
  <metadata id="CorelCorpID_0Corel-Layer"/>
  <g id="_587002696">
   <path class="fil0" d="M6133 7545l-3 3456 0 9486 186 -238c61,-83 108,-155 172,-240 583,-783 1184,-1656 1766,-2453l710 -971 477 -676c611,-816 1313,-1819 1920,-2668l1437 -2001c81,71 164,222 232,330 399,628 3158,4730 3230,4892l666 992c223,349 440,664 673,1014 225,337 444,668 661,1006l678 997 -1 -5539c-26,-2003 -1,-4025 -1,-6030 0,-301 -27,-5870 12,-6007 -3,-5 -6,-13 -8,-17 -2,-4 -6,-12 -9,-17l-23 -70c-130,-467 -492,-791 -989,-894 -249,-51 -1630,-42 -1952,-30 -1427,-37 -2904,-2 -4337,-2 -721,0 -1442,-5 -2164,-5 -472,0 -1772,40 -2132,15 -248,-5 -486,102 -658,212 -179,115 -309,241 -417,449 -202,391 -125,1102 -125,1584 0,1138 18,2290 -1,3425z"/>
   <path class="fil1" d="M18948 2895c-39,137 -12,5706 -12,6007 0,2005 -25,4027 1,6030 119,-47 272,-149 389,-216 140,-80 250,-146 385,-222 256,-146 512,-297 768,-444 520,-297 1033,-593 1550,-894l2684 -1557c180,-135 191,-227 269,-321l26 -27c3,-173 168,-450 -59,-869 -125,-230 -259,-444 -389,-671 -771,-1346 -1594,-2732 -2351,-4075 -258,-457 -512,-902 -777,-1343 -268,-446 -518,-909 -784,-1359 -299,-506 -900,-1616 -1174,-2028 -138,-209 -311,-377 -640,-446 89,254 111,198 110,544 0,209 0,419 0,628 0,416 23,862 4,1263z"/>
   <path class="fil1" d="M52 11204c21,72 -54,287 -52,424 3,166 44,318 109,444 124,238 261,443 396,685 259,462 526,907 792,1372l3151 5461c268,471 521,905 793,1370 293,501 455,1011 1109,1071 -294,-229 -239,-744 -239,-1185l-20 -9477c0,-137 -24,-284 39,-368l3 -3456 -31 2 -5755 3336c-268,211 -165,278 -295,321z"/>
   <path class="fil2" d="M8964 16585c144,69 291,164 442,253l3108 1805 40 1c48,-53 40,-39 108,-77l3156 -1821c57,-32 424,-218 442,-284 -72,-162 -2831,-4264 -3230,-4892 -68,-108 -151,-259 -232,-330l-1437 2001c-607,849 -1309,1852 -1920,2668l-477 676z"/>
   <path class="fil3" d="M18937 14932l1 5539 -678 -997c-217,-338 -436,-669 -661,-1006 -233,-350 -450,-665 -673,-1014l-666 -992c-18,66 -385,252 -442,284l-3156 1821c-68,38 -60,24 -108,77 184,138 4141,2394 4524,2618 259,153 494,282 753,437 291,174 456,306 872,341 72,-12 60,-1 105,-34 251,21 521,-227 648,-410 141,-202 1027,-1766 1174,-2028 510,-905 1048,-1796 1560,-2703 258,-456 513,-901 777,-1343 267,-445 518,-910 784,-1359l1172 -2030c179,-327 175,-495 85,-882l-26 27c-78,94 -89,186 -269,321l-2684 1557c-517,301 -1030,597 -1550,894 -256,147 -512,298 -768,444 -135,76 -245,142 -385,222 -117,67 -270,169 -389,216z"/>
   <path class="fil3" d="M52 11204c130,-43 27,-110 295,-321l5755 -3336 31 -2c19,-1135 1,-2287 1,-3425 0,-482 -77,-1193 125,-1584 108,-208 238,-334 417,-449 172,-110 410,-217 658,-212 132,-87 1446,3 1739,-32l-663 -388c-258,-146 -1516,-894 -1681,-959 -194,-76 -266,-39 -396,-54 -45,-6 -27,-2 -46,-13l-44 30c-568,114 -746,603 -1027,1099l-1552 2689c-765,1350 -1568,2693 -2336,4047l-1164 2016c-197,329 -186,490 -112,894z"/>
   <path class="fil4" d="M6369 22041c61,111 317,252 505,293 283,63 5255,26 5665,26 1623,0 3245,0 4868,0 566,0 999,34 1296,-320 -416,-35 -581,-167 -872,-341 -259,-155 -494,-284 -753,-437 -383,-224 -4340,-2480 -4524,-2618l-40 -1c-92,79 -249,151 -373,225 -861,513 -1778,1018 -2648,1529l-2263 1307c-326,185 -409,291 -861,337z"/>
   <path class="fil4" d="M6287 429c19,11 1,7 46,13 130,15 202,-22 396,54 165,65 1423,813 1681,959l663 388c-293,35 -1607,-55 -1739,32 360,25 1660,-15 2132,-15 722,0 1443,5 2164,5 1433,0 2910,-35 4337,2 86,-74 2151,-1275 2347,-1362 181,-80 275,-51 479,-65 -85,-157 -250,-287 -453,-368 -229,-92 -519,-68 -781,-68l-9997 0c-266,0 -553,-25 -794,54 -199,65 -411,225 -481,371z"/>
   <path class="fil5" d="M6350 22031l19 10c452,-46 535,-152 861,-337l2263 -1307c870,-511 1787,-1016 2648,-1529 124,-74 281,-146 373,-225l-3108 -1805c-151,-89 -298,-184 -442,-253l-710 971c-582,797 -1183,1670 -1766,2453 -64,85 -111,157 -172,240l-186 238 0 -9486c-63,84 -39,231 -39,368l20 9477c0,441 -55,956 239,1185z"/>
   <path class="fil5" d="M15967 1867c322,-12 1703,-21 1952,30 497,103 859,427 989,894l23 70c3,5 7,13 9,17 2,4 5,12 8,17 19,-401 -4,-847 -4,-1263 0,-209 0,-419 0,-628 1,-346 -21,-290 -110,-544 -30,-34 -1,-6 -41,-20 -204,14 -298,-15 -479,65 -196,87 -2261,1288 -2347,1362z"/>
  </g>
 </g>
</svg>
