<?xml version="1.0" encoding="UTF-8"?>
<!DOCTYPE svg PUBLIC "-//W3C//DTD SVG 1.1//EN" "http://www.w3.org/Graphics/SVG/1.1/DTD/svg11.dtd">
<!-- Creator: CorelDRAW X7 -->
<svg xmlns="http://www.w3.org/2000/svg" xml:space="preserve" width="8.1135mm" height="10.5965mm" version="1.1" style="shape-rendering:geometricPrecision; text-rendering:geometricPrecision; image-rendering:optimizeQuality; fill-rule:evenodd; clip-rule:evenodd"
viewBox="0 0 170 222"
 xmlns:xlink="http://www.w3.org/1999/xlink">
 <defs>
  <style type="text/css">
   <![CDATA[
    .str0 {stroke:red;stroke-width:1.5955}
    .fil0 {fill:red;fill-rule:nonzero}
   ]]>
  </style>
 </defs>
 <g id="Capa_x0020_1">
  <metadata id="CorelCorpID_0Corel-Layer"/>
  <path class="fil0 str0" d="M1 221l0 -220 83 0c15,0 26,1 34,2 10,2 19,5 27,10 7,5 13,12 17,21 5,9 7,19 7,30 0,19 -6,35 -18,48 -12,13 -33,19 -64,19l-57 0 0 90 -29 0zm29 -116l57 0c19,0 32,-3 40,-10 8,-7 12,-17 12,-30 0,-9 -2,-17 -7,-23 -5,-7 -11,-11 -18,-13 -5,-2 -14,-2 -28,-2l-56 0 0 78z"/>
 </g>
</svg>
