<?xml version="1.0" encoding="UTF-8"?>
<!DOCTYPE svg PUBLIC "-//W3C//DTD SVG 1.1//EN" "http://www.w3.org/Graphics/SVG/1.1/DTD/svg11.dtd">
<!-- Creator: CorelDRAW X7 -->
<svg xmlns="http://www.w3.org/2000/svg" xml:space="preserve" width="10.5719mm" height="13.8105mm" version="1.1" style="shape-rendering:geometricPrecision; text-rendering:geometricPrecision; image-rendering:optimizeQuality; fill-rule:evenodd; clip-rule:evenodd"
viewBox="0 0 242 317"
 xmlns:xlink="http://www.w3.org/1999/xlink">
 <defs>
  <style type="text/css">
   <![CDATA[
    .str0 {stroke:red;stroke-width:1.74777}
    .fil0 {fill:red}
   ]]>
  </style>
 </defs>
 <g id="Capa_x0020_1">
  <metadata id="CorelCorpID_0Corel-Layer"/>
  <g id="_397200792">
   <path class="fil0 str0" d="M121 13c67,0 121,64 121,144 0,80 -54,145 -121,145 -66,0 -120,-65 -120,-145 0,-80 54,-144 120,-144zm0 47c45,0 81,43 81,97 0,54 -36,98 -81,98 -45,0 -81,-44 -81,-98 0,-54 36,-97 81,-97z"/>
   <polygon class="fil0 str0" points="99,1 99,316 143,316 143,1 "/>
  </g>
 </g>
</svg>
