<?xml version="1.0" encoding="UTF-8"?>
<!DOCTYPE svg PUBLIC "-//W3C//DTD SVG 1.1//EN" "http://www.w3.org/Graphics/SVG/1.1/DTD/svg11.dtd">
<!-- Creator: CorelDRAW X7 -->
<svg xmlns="http://www.w3.org/2000/svg" xml:space="preserve" width="35.6779mm" height="15.4688mm" version="1.1" style="shape-rendering:geometricPrecision; text-rendering:geometricPrecision; image-rendering:optimizeQuality; fill-rule:evenodd; clip-rule:evenodd"
viewBox="0 0 93873 40700"
 xmlns:xlink="http://www.w3.org/1999/xlink">
 <defs>
  <style type="text/css">
   <![CDATA[
    .str0 {stroke:black;stroke-width:1315.56}
    .str1 {stroke:red;stroke-width:200.491}
    .fil0 {fill:none}
    .fil1 {fill:red}
   ]]>
  </style>
 </defs>
 <g id="Capa_x0020_1">
  <metadata id="CorelCorpID_0Corel-Layer"/>
  <path class="fil0 str0" d="M14944 39474c-4647,-4693 -9321,-9393 -14147,-14135 16508,-34228 83995,-31382 92347,-620l-13400 15031c-8558,-8305 -19986,-13379 -32542,-13379 -12417,0 -23733,4961 -32258,13103z"/>
  <path class="fil0 str0" d="M78212 38327c237,211 473,424 705,640 -233,-216 -468,-430 -705,-640z"/>
  <path class="fil0 str0" d="M77369 37592c231,197 461,397 690,598 -229,-202 -459,-400 -690,-598z"/>
  <path class="fil0 str0" d="M76510 36878c228,185 454,372 678,561 -224,-189 -450,-376 -678,-561z"/>
  <path class="fil0 str0" d="M75633 36183c213,164 423,330 632,498l-632 -498z"/>
  <path class="fil0 str0" d="M74700 35478c223,164 445,330 665,499 -220,-169 -442,-335 -665,-499z"/>
  <polygon class="fil1 str1" points="33864,18056 58457,18037 58465,12160 33858,12160 "/>
 </g>
</svg>
