<?xml version="1.0" encoding="UTF-8"?>
<!DOCTYPE svg PUBLIC "-//W3C//DTD SVG 1.1//EN" "http://www.w3.org/Graphics/SVG/1.1/DTD/svg11.dtd">
<!-- Creator: CorelDRAW X7 -->
<svg xmlns="http://www.w3.org/2000/svg" xml:space="preserve" width="37.011mm" height="58.4646mm" version="1.1" style="shape-rendering:geometricPrecision; text-rendering:geometricPrecision; image-rendering:optimizeQuality; fill-rule:evenodd; clip-rule:evenodd"
viewBox="0 0 119465 188714"
 xmlns:xlink="http://www.w3.org/1999/xlink">
 <defs>
  <style type="text/css">
   <![CDATA[
    .str0 {stroke:black;stroke-width:1613.92}
    .str1 {stroke:red;stroke-width:245.961}
    .fil0 {fill:none}
    .fil1 {fill:red}
   ]]>
  </style>
 </defs>
 <g id="Capa_x0020_1">
  <metadata id="CorelCorpID_0Corel-Layer"/>
  <g id="_535487232">
   <g>
    <path class="fil0 str0" d="M20159 48427c-5701,-5758 -11434,-11524 -17355,-17342 20251,-41990 103044,-38498 113291,-760l-16440 18440c-10498,-10188 -24519,-16413 -39922,-16413 -15233,0 -29116,6086 -39574,16075z"/>
    <ellipse class="fil0 str0" cx="59733" cy="94402" rx="24806" ry="26121"/>
    <path class="fil0 str0" d="M20112 140334c-5685,5742 -11403,11493 -17308,17295 20251,41990 103044,38498 113291,760l-16398 -18392c-10503,10212 -24540,16455 -39964,16455 -15255,0 -29156,-6104 -39621,-16118z"/>
    <path class="fil0 str0" d="M45029 115351c-8541,8392 -16694,16678 -24917,24983 10465,10014 24366,16118 39621,16118 15424,0 29461,-6243 39964,-16455l-23412 -26261c-8427,7327 -20928,9240 -31256,1615z"/>
    <path class="fil0 str0" d="M95448 143755c-293,235 -586,467 -883,696 297,-229 590,-462 883,-696z"/>
    <path class="fil0 str0" d="M96506 142885c-265,223 -532,444 -801,663 269,-219 536,-440 801,-663z"/>
    <path class="fil0 str0" d="M97599 141941c-263,233 -529,464 -797,693 268,-229 533,-460 797,-693z"/>
    <path class="fil0 str0" d="M98653 140987c-273,254 -548,504 -826,752 278,-248 553,-499 826,-752z"/>
    <path class="fil0 str0" d="M99681 140013c-278,270 -558,536 -841,800 283,-264 563,-530 841,-800z"/>
    <path class="fil0 str0" d="M44979 115401c-8523,8375 -16660,16644 -24867,24933 -11859,-11351 -19305,-27726 -19305,-45932 0,-18250 7481,-34658 19391,-46012l-39 37c8207,8289 16345,16560 24870,24936l42 -29c-6150,4753 -10144,12418 -10144,21069 0,8606 3954,16239 10052,20998z"/>
    <path class="fil0 str0" d="M99655 48765c11681,11338 19003,27586 19003,45637 0,18025 -7304,34259 -18961,45595l-23354 -26196c5032,-4780 8195,-11700 8195,-19398 0,-7721 -3182,-14658 -8239,-19440l23356 -26198z"/>
    <path class="fil0 str0" d="M97776 47019c291,259 580,520 865,785 -286,-264 -574,-527 -865,-785z"/>
    <path class="fil0 str0" d="M96742 46118c283,241 565,486 845,733 -280,-248 -562,-491 -845,-733z"/>
    <path class="fil0 str0" d="M95688 45242c279,227 556,456 832,688 -275,-232 -553,-461 -832,-688z"/>
    <path class="fil0 str0" d="M94612 44389c261,201 518,405 775,611l-775 -611z"/>
    <path class="fil0 str0" d="M93467 43524c274,202 546,405 816,612 -270,-207 -542,-410 -816,-612z"/>
    <path class="fil0 str0" d="M59733 32352c15403,0 29424,6225 39922,16413l-23370 26213c-8427,-7328 -20928,-9240 -31256,-1615 -8525,-8376 -16663,-16647 -24870,-24936 10458,-9989 24341,-16075 39574,-16075z"/>
   </g>
   <polygon class="fil1 str1" points="16292,104815 103168,104748 103195,83989 16270,83989 "/>
  </g>
 </g>
</svg>
