<?xml version="1.0" encoding="UTF-8"?>
<!DOCTYPE svg PUBLIC "-//W3C//DTD SVG 1.1//EN" "http://www.w3.org/Graphics/SVG/1.1/DTD/svg11.dtd">
<!-- Creator: CorelDRAW X7 -->
<svg xmlns="http://www.w3.org/2000/svg" xml:space="preserve" width="37.011mm" height="58.4646mm" version="1.1" style="shape-rendering:geometricPrecision; text-rendering:geometricPrecision; image-rendering:optimizeQuality; fill-rule:evenodd; clip-rule:evenodd"
viewBox="0 0 136243 215217"
 xmlns:xlink="http://www.w3.org/1999/xlink">
 <defs>
  <style type="text/css">
   <![CDATA[
    .str0 {stroke:black;stroke-width:1840.57}
    .str1 {stroke:red;stroke-width:280.503}
    .fil0 {fill:none}
    .fil1 {fill:red}
   ]]>
  </style>
 </defs>
 <g id="Capa_x0020_1">
  <metadata id="CorelCorpID_0Corel-Layer"/>
  <g id="_358925656">
   <path class="fil0 str0" d="M22990 55228c-6501,-6567 -13040,-13143 -19793,-19777 23096,-47887 117516,-43905 129202,-867l-18749 21030c-11972,-11619 -27962,-18719 -45529,-18719 -17372,0 -33204,6942 -45131,18333z"/>
   <ellipse class="fil0 str0" cx="68122" cy="107660" rx="28289" ry="29789"/>
   <path class="fil0 str0" d="M22937 160042c-6484,6549 -13005,13108 -19740,19724 23096,47887 117516,43905 129202,867l-18700 -20975c-11979,11646 -27987,18766 -45578,18766 -17397,0 -33250,-6961 -45184,-18382z"/>
   <path class="fil0 str0" d="M51353 131551c-9740,9571 -19038,19020 -28416,28491 11934,11421 27787,18382 45184,18382 17591,0 33599,-7120 45578,-18766l-26700 -29949c-9611,8357 -23868,10537 -35646,1842z"/>
   <path class="fil0 str0" d="M108852 163943c-333,269 -668,533 -1007,795 339,-262 674,-527 1007,-795z"/>
   <path class="fil0 str0" d="M110060 162951c-303,255 -608,507 -915,756 307,-249 612,-501 915,-756z"/>
   <path class="fil0 str0" d="M111306 161875c-301,266 -604,530 -909,790 305,-260 607,-524 909,-790z"/>
   <path class="fil0 str0" d="M112508 160787c-312,289 -626,575 -942,858 316,-283 630,-570 942,-858z"/>
   <path class="fil0 str0" d="M113680 159676c-317,308 -636,612 -959,913 323,-301 642,-605 959,-913z"/>
   <path class="fil0 str0" d="M51295 131608c-9719,9551 -18999,18982 -28358,28434 -13525,-12945 -22017,-31620 -22017,-52382 0,-20814 8532,-39526 22114,-52474l-44 42c9360,9453 18640,18886 28363,28438l47 -34c-7013,5422 -11568,14163 -11568,24028 0,9816 4509,18521 11463,23948z"/>
   <path class="fil0 str0" d="M113650 55614c13322,12930 21673,31460 21673,52046 0,20556 -8331,39069 -21624,51998l-26634 -29875c5739,-5451 9346,-13343 9346,-22123 0,-8805 -3630,-16716 -9396,-22170l26635 -29876z"/>
   <path class="fil0 str0" d="M111508 53622c331,296 661,593 986,896 -326,-302 -655,-601 -986,-896z"/>
   <path class="fil0 str0" d="M110328 52595c324,275 645,554 965,835 -320,-282 -641,-559 -965,-835z"/>
   <path class="fil0 str0" d="M109127 51596c318,258 634,520 948,785 -313,-265 -630,-527 -948,-785z"/>
   <path class="fil0 str0" d="M107900 50622c296,230 590,463 883,698l-883 -698z"/>
   <path class="fil0 str0" d="M106594 49636c311,230 622,463 930,699 -308,-236 -619,-469 -930,-699z"/>
   <path class="fil0 str0" d="M68121 36895c17567,0 33557,7100 45529,18719l-26651 29894c-9611,-8357 -23868,-10538 -35646,-1842 -9723,-9552 -19003,-18985 -28363,-28438 11927,-11391 27759,-18333 45131,-18333z"/>
  </g>
  <polygon class="fil1 str1" points="53404,47283 53498,168622 82492,168660 82492,47253 "/>
 </g>
</svg>
