<?xml version="1.0" encoding="UTF-8"?>
<!DOCTYPE svg PUBLIC "-//W3C//DTD SVG 1.1//EN" "http://www.w3.org/Graphics/SVG/1.1/DTD/svg11.dtd">
<!-- Creator: CorelDRAW X7 -->
<svg xmlns="http://www.w3.org/2000/svg" xml:space="preserve" width="8.1135mm" height="10.5965mm" version="1.1" style="shape-rendering:geometricPrecision; text-rendering:geometricPrecision; image-rendering:optimizeQuality; fill-rule:evenodd; clip-rule:evenodd"
viewBox="0 0 87 113"
 xmlns:xlink="http://www.w3.org/1999/xlink">
 <defs>
  <style type="text/css">
   <![CDATA[
    .str0 {stroke:blue;stroke-width:0.815793}
    .fil0 {fill:blue;fill-rule:nonzero}
   ]]>
  </style>
 </defs>
 <g id="Capa_x0020_1">
  <metadata id="CorelCorpID_0Corel-Layer"/>
  <path class="fil0 str0" d="M0 113l0 -113 43 0c7,0 13,1 17,1 6,1 10,3 14,6 4,2 7,6 9,11 2,4 3,9 3,15 0,9 -3,18 -9,24 -6,7 -17,10 -33,10l-29 0 0 46 -15 0zm15 -59l29 0c10,0 17,-2 21,-5 4,-4 6,-9 6,-16 0,-4 -1,-8 -4,-12 -2,-3 -5,-5 -9,-6 -2,-1 -7,-1 -14,-1l-29 0 0 40z"/>
 </g>
</svg>
