<?xml version="1.0" encoding="UTF-8"?>
<!DOCTYPE svg PUBLIC "-//W3C//DTD SVG 1.1//EN" "http://www.w3.org/Graphics/SVG/1.1/DTD/svg11.dtd">
<!-- Creator: CorelDRAW X7 -->
<svg xmlns="http://www.w3.org/2000/svg" xml:space="preserve" width="10.6137mm" height="9.6558mm" version="1.1" style="shape-rendering:geometricPrecision; text-rendering:geometricPrecision; image-rendering:optimizeQuality; fill-rule:evenodd; clip-rule:evenodd"
viewBox="0 0 139 126"
 xmlns:xlink="http://www.w3.org/1999/xlink">
 <defs>
  <style type="text/css">
   <![CDATA[
    .str0 {stroke:blue;stroke-width:0.997688}
    .fil0 {fill:blue;fill-rule:nonzero}
   ]]>
  </style>
 </defs>
 <g id="Capa_x0020_1">
  <metadata id="CorelCorpID_0Corel-Layer"/>
  <path class="fil0 str0" d="M68 126l-27 0c-3,-4 -5,-14 -5,-30l0 0 0 -8c0,-10 0,-16 0,-16 0,-4 -2,-6 -8,-6l0 60 -28 0 0 -126 34 0c8,0 15,2 21,6 5,3 8,9 8,17l0 15c0,9 -5,16 -17,19 12,3 17,10 17,21l0 14c0,20 2,31 5,34zm-32 -82l0 -21c0,-4 -2,-6 -8,-6l0 33c6,0 8,-2 8,-6zm102 82l-27 0 -9 -28 -8 28 -25 0 20 -54 -19 -48 26 0 9 27 6 -27 24 0 -17 49 20 53z"/>
 </g>
</svg>
