<?xml version="1.0" encoding="UTF-8"?>
<!DOCTYPE svg PUBLIC "-//W3C//DTD SVG 1.1//EN" "http://www.w3.org/Graphics/SVG/1.1/DTD/svg11.dtd">
<!-- Creator: CorelDRAW X7 -->
<svg xmlns="http://www.w3.org/2000/svg" xml:space="preserve" width="6.8475mm" height="11.3029mm" version="1.1" style="shape-rendering:geometricPrecision; text-rendering:geometricPrecision; image-rendering:optimizeQuality; fill-rule:evenodd; clip-rule:evenodd"
viewBox="0 0 61 101"
 xmlns:xlink="http://www.w3.org/1999/xlink">
 <defs>
  <style type="text/css">
   <![CDATA[
    .str0 {stroke:blue;stroke-width:0.682786}
    .fil0 {fill:blue;fill-rule:nonzero}
   ]]>
  </style>
 </defs>
 <g id="Capa_x0020_1">
  <metadata id="CorelCorpID_0Corel-Layer"/>
  <path class="fil0 str0" d="M56 3l-1 15c-4,-1 -7,-2 -10,-3 -3,0 -6,-1 -9,-1 -5,0 -9,1 -12,3 -2,2 -4,5 -4,9 0,2 1,5 3,7 2,2 7,5 14,9l1 1c15,9 23,18 23,29 0,8 -3,15 -10,21 -6,5 -15,8 -25,8 -4,0 -9,0 -13,-1 -4,-1 -8,-2 -11,-4l1 -15c4,2 8,4 11,5 4,1 7,1 11,1 5,0 9,-1 12,-3 3,-3 5,-6 5,-9 0,-6 -6,-12 -17,-19 -1,-1 -3,-1 -4,-2 -8,-4 -13,-9 -16,-13 -3,-4 -5,-8 -5,-14 0,-8 3,-14 10,-19 6,-5 14,-8 25,-8 3,0 7,1 10,1 4,1 7,1 11,2z"/>
 </g>
</svg>
