<?xml version="1.0" encoding="UTF-8"?>
<!DOCTYPE svg PUBLIC "-//W3C//DTD SVG 1.1//EN" "http://www.w3.org/Graphics/SVG/1.1/DTD/svg11.dtd">
<!-- Creator: CorelDRAW X7 -->
<svg xmlns="http://www.w3.org/2000/svg" xml:space="preserve" width="10.6137mm" height="9.6559mm" version="1.1" style="shape-rendering:geometricPrecision; text-rendering:geometricPrecision; image-rendering:optimizeQuality; fill-rule:evenodd; clip-rule:evenodd"
viewBox="0 0 253 230"
 xmlns:xlink="http://www.w3.org/1999/xlink">
 <defs>
  <style type="text/css">
   <![CDATA[
    .str0 {stroke:red;stroke-width:1.81612}
    .fil0 {fill:red;fill-rule:nonzero}
   ]]>
  </style>
 </defs>
 <g id="Capa_x0020_1">
  <metadata id="CorelCorpID_0Corel-Layer"/>
  <path class="fil0 str0" d="M124 229l-50 0c-6,-6 -8,-25 -8,-55l0 0 0 -14c0,-19 0,-28 0,-29 0,-8 -5,-12 -15,-12l0 110 -50 0 0 -228 62 0c14,0 26,3 37,10 10,6 15,16 15,30l0 28c0,17 -10,29 -31,35 21,5 31,18 31,38l0 25c0,37 3,57 9,62zm-58 -149l0 -38c0,-8 -5,-12 -15,-12l0 62c10,0 15,-4 15,-12zm186 149l-50 0 -16 -50 -14 50 -46 0 36 -98 -35 -87 48 0 15 48 13 -48 43 0 -31 89 37 96z"/>
 </g>
</svg>
